<?xml version="1.0" encoding="UTF-8"?>
<!DOCTYPE svg PUBLIC "-//W3C//DTD SVG 1.1//EN" "http://www.w3.org/Graphics/SVG/1.1/DTD/svg11.dtd">
<svg version="1.2" width="211.93mm" height="211.93mm" viewBox="0 0 21193 21193" preserveAspectRatio="xMidYMid" fill-rule="evenodd" stroke-width="28.222" stroke-linejoin="round" xmlns="http://www.w3.org/2000/svg" xmlns:ooo="http://xml.openoffice.org/svg/export" xmlns:xlink="http://www.w3.org/1999/xlink" xmlns:presentation="http://sun.com/xmlns/staroffice/presentation" xmlns:smil="http://www.w3.org/2001/SMIL20/" xmlns:anim="urn:oasis:names:tc:opendocument:xmlns:animation:1.0" xml:space="preserve">
 <defs class="ClipPathGroup">
  <clipPath id="presentation_clip_path" clipPathUnits="userSpaceOnUse">
   <rect x="0" y="0" width="21193" height="21193"/>
  </clipPath>
  <clipPath id="presentation_clip_path_shrink" clipPathUnits="userSpaceOnUse">
   <rect x="21" y="21" width="21151" height="21151"/>
  </clipPath>
 </defs>
 <defs class="TextShapeIndex">
  <g ooo:slide="id1" ooo:id-list="id3 id4 id5 id6 id7"/>
 </defs>
 <defs class="EmbeddedBulletChars">
  <g id="bullet-char-template-57356" transform="scale(0.00048828125,-0.00048828125)">
   <path d="M 580,1141 L 1163,571 580,0 -4,571 580,1141 Z"/>
  </g>
  <g id="bullet-char-template-57354" transform="scale(0.00048828125,-0.00048828125)">
   <path d="M 8,1128 L 1137,1128 1137,0 8,0 8,1128 Z"/>
  </g>
  <g id="bullet-char-template-10146" transform="scale(0.00048828125,-0.00048828125)">
   <path d="M 174,0 L 602,739 174,1481 1456,739 174,0 Z M 1358,739 L 309,1346 659,739 1358,739 Z"/>
  </g>
  <g id="bullet-char-template-10132" transform="scale(0.00048828125,-0.00048828125)">
   <path d="M 2015,739 L 1276,0 717,0 1260,543 174,543 174,936 1260,936 717,1481 1274,1481 2015,739 Z"/>
  </g>
  <g id="bullet-char-template-10007" transform="scale(0.00048828125,-0.00048828125)">
   <path d="M 0,-2 C -7,14 -16,27 -25,37 L 356,567 C 262,823 215,952 215,954 215,979 228,992 255,992 264,992 276,990 289,987 310,991 331,999 354,1012 L 381,999 492,748 772,1049 836,1024 860,1049 C 881,1039 901,1025 922,1006 886,937 835,863 770,784 769,783 710,716 594,584 L 774,223 C 774,196 753,168 711,139 L 727,119 C 717,90 699,76 672,76 641,76 570,178 457,381 L 164,-76 C 142,-110 111,-127 72,-127 30,-127 9,-110 8,-76 1,-67 -2,-52 -2,-32 -2,-23 -1,-13 0,-2 Z"/>
  </g>
  <g id="bullet-char-template-10004" transform="scale(0.00048828125,-0.00048828125)">
   <path d="M 285,-33 C 182,-33 111,30 74,156 52,228 41,333 41,471 41,549 55,616 82,672 116,743 169,778 240,778 293,778 328,747 346,684 L 369,508 C 377,444 397,411 428,410 L 1163,1116 C 1174,1127 1196,1133 1229,1133 1271,1133 1292,1118 1292,1087 L 1292,965 C 1292,929 1282,901 1262,881 L 442,47 C 390,-6 338,-33 285,-33 Z"/>
  </g>
  <g id="bullet-char-template-9679" transform="scale(0.00048828125,-0.00048828125)">
   <path d="M 813,0 C 632,0 489,54 383,161 276,268 223,411 223,592 223,773 276,916 383,1023 489,1130 632,1184 813,1184 992,1184 1136,1130 1245,1023 1353,916 1407,772 1407,592 1407,412 1353,268 1245,161 1136,54 992,0 813,0 Z"/>
  </g>
  <g id="bullet-char-template-8226" transform="scale(0.00048828125,-0.00048828125)">
   <path d="M 346,457 C 273,457 209,483 155,535 101,586 74,649 74,723 74,796 101,859 155,911 209,963 273,989 346,989 419,989 480,963 531,910 582,859 608,796 608,723 608,648 583,586 532,535 482,483 420,457 346,457 Z"/>
  </g>
  <g id="bullet-char-template-8211" transform="scale(0.00048828125,-0.00048828125)">
   <path d="M -4,459 L 1135,459 1135,606 -4,606 -4,459 Z"/>
  </g>
  <g id="bullet-char-template-61548" transform="scale(0.00048828125,-0.00048828125)">
   <path d="M 173,740 C 173,903 231,1043 346,1159 462,1274 601,1332 765,1332 928,1332 1067,1274 1183,1159 1299,1043 1357,903 1357,740 1357,577 1299,437 1183,322 1067,206 928,148 765,148 601,148 462,206 346,322 231,437 173,577 173,740 Z"/>
  </g>
 </defs>
 <g>
  <g id="id2" class="Master_Slide">
   <g id="bg-id2" class="Background"/>
   <g id="bo-id2" class="BackgroundObjects"/>
  </g>
 </g>
 <g class="SlideGroup">
  <g>
   <g id="container-id1">
    <g id="id1" class="Slide" clip-path="url(#presentation_clip_path)">
     <g class="Page">
      <g class="com.sun.star.drawing.CustomShape">
       <g id="id3">
        <rect class="BoundingBox" stroke="none" fill="none" x="-2" y="-2" width="21197" height="21197"/>
        <path fill="rgb(0,0,0)" stroke="none" d="M 21193,10596 C 21193,12456 20703,14284 19773,15895 18843,17505 17505,18843 15895,19773 14284,20703 12456,21193 10596,21193 8736,21193 6908,20703 5298,19773 3687,18843 2349,17505 1419,15895 489,14284 -1,12456 -1,10596 -1,8736 489,6908 1419,5298 2349,3687 3687,2349 5297,1419 6908,489 8736,-1 10596,-1 12456,-1 14284,489 15894,1419 17505,2349 18843,3687 19773,5297 20703,6908 21193,8736 21193,10596 L 21193,10596 Z"/>
        <path fill="none" stroke="rgb(52,101,164)" d="M 21193,10596 C 21193,12456 20703,14284 19773,15895 18843,17505 17505,18843 15895,19773 14284,20703 12456,21193 10596,21193 8736,21193 6908,20703 5298,19773 3687,18843 2349,17505 1419,15895 489,14284 -1,12456 -1,10596 -1,8736 489,6908 1419,5298 2349,3687 3687,2349 5297,1419 6908,489 8736,-1 10596,-1 12456,-1 14284,489 15894,1419 17505,2349 18843,3687 19773,5297 20703,6908 21193,8736 21193,10596 L 21193,10596 Z"/>
       </g>
      </g>
      <g class="com.sun.star.drawing.CustomShape">
       <g id="id4">
        <rect class="BoundingBox" stroke="none" fill="none" x="1697" y="1635" width="17865" height="17865"/>
        <path fill="rgb(255,255,255)" stroke="none" d="M 19560,10567 C 19560,12135 19147,13675 18363,15033 17580,16390 16452,17518 15095,18301 13737,19085 12197,19498 10629,19498 9061,19498 7521,19085 6164,18301 4806,17518 3678,16390 2895,15033 2111,13675 1698,12135 1698,10567 1698,8999 2111,7459 2895,6102 3678,4744 4806,3616 6163,2833 7521,2049 9061,1636 10629,1636 12197,1636 13737,2049 15094,2833 16452,3616 17580,4744 18363,6101 19147,7459 19560,8999 19560,10567 L 19560,10567 Z"/>
        <path fill="none" stroke="rgb(52,101,164)" d="M 19560,10567 C 19560,12135 19147,13675 18363,15033 17580,16390 16452,17518 15095,18301 13737,19085 12197,19498 10629,19498 9061,19498 7521,19085 6164,18301 4806,17518 3678,16390 2895,15033 2111,13675 1698,12135 1698,10567 1698,8999 2111,7459 2895,6102 3678,4744 4806,3616 6163,2833 7521,2049 9061,1636 10629,1636 12197,1636 13737,2049 15094,2833 16452,3616 17580,4744 18363,6101 19147,7459 19560,8999 19560,10567 L 19560,10567 Z"/>
       </g>
      </g>
      <g class="com.sun.star.drawing.CustomShape">
       <g id="id5">
        <rect class="BoundingBox" stroke="none" fill="none" x="1697" y="1635" width="17865" height="17865"/>
        <path fill="rgb(255,255,255)" stroke="none" d="M 19560,10567 C 19560,12135 19147,13675 18363,15033 17580,16390 16452,17518 15095,18301 13737,19085 12197,19498 10629,19498 9061,19498 7521,19085 6164,18301 4806,17518 3678,16390 2895,15033 2111,13675 1698,12135 1698,10567 1698,8999 2111,7459 2895,6102 3678,4744 4806,3616 6163,2833 7521,2049 9061,1636 10629,1636 12197,1636 13737,2049 15094,2833 16452,3616 17580,4744 18363,6101 19147,7459 19560,8999 19560,10567 L 19560,10567 Z"/>
        <path fill="none" stroke="rgb(52,101,164)" d="M 19560,10567 C 19560,12135 19147,13675 18363,15033 17580,16390 16452,17518 15095,18301 13737,19085 12197,19498 10629,19498 9061,19498 7521,19085 6164,18301 4806,17518 3678,16390 2895,15033 2111,13675 1698,12135 1698,10567 1698,8999 2111,7459 2895,6102 3678,4744 4806,3616 6163,2833 7521,2049 9061,1636 10629,1636 12197,1636 13737,2049 15094,2833 16452,3616 17580,4744 18363,6101 19147,7459 19560,8999 19560,10567 L 19560,10567 Z"/>
       </g>
      </g>
      <g class="com.sun.star.drawing.CustomShape">
       <g id="id6">
        <rect class="BoundingBox" stroke="none" fill="none" x="5198" y="5360" width="10666" height="10666"/>
        <path fill="rgb(0,0,0)" stroke="none" d="M 15862,10693 C 15862,11628 15616,12548 15148,13358 14680,14169 14007,14842 13196,15310 12386,15778 11466,16024 10531,16024 9595,16024 8675,15778 7865,15310 7054,14842 6381,14169 5913,13358 5445,12548 5199,11628 5199,10693 5199,9757 5445,8837 5913,8027 6381,7216 7054,6543 7865,6075 8675,5607 9595,5361 10530,5361 11466,5361 12386,5607 13196,6075 14007,6543 14680,7216 15148,8027 15616,8837 15862,9757 15862,10692 L 15862,10693 Z"/>
        <path fill="none" stroke="rgb(52,101,164)" d="M 15862,10693 C 15862,11628 15616,12548 15148,13358 14680,14169 14007,14842 13196,15310 12386,15778 11466,16024 10531,16024 9595,16024 8675,15778 7865,15310 7054,14842 6381,14169 5913,13358 5445,12548 5199,11628 5199,10693 5199,9757 5445,8837 5913,8027 6381,7216 7054,6543 7865,6075 8675,5607 9595,5361 10530,5361 11466,5361 12386,5607 13196,6075 14007,6543 14680,7216 15148,8027 15616,8837 15862,9757 15862,10692 L 15862,10693 Z"/>
       </g>
      </g>
      <g class="com.sun.star.drawing.CustomShape">
       <g id="id7">
        <rect class="BoundingBox" stroke="none" fill="none" x="9109" y="9359" width="2915" height="2915"/>
        <path fill="rgb(255,255,255)" stroke="none" d="M 12022,10816 C 12022,11072 11955,11323 11827,11544 11699,11765 11515,11949 11294,12077 11073,12205 10822,12272 10566,12272 10310,12272 10059,12205 9838,12077 9617,11949 9433,11765 9305,11544 9177,11323 9110,11072 9110,10816 9110,10560 9177,10309 9305,10088 9433,9867 9617,9683 9838,9555 10059,9427 10310,9360 10566,9360 10822,9360 11073,9427 11294,9555 11515,9683 11699,9867 11827,10088 11955,10309 12022,10560 12022,10816 L 12022,10816 Z"/>
        <path fill="none" stroke="rgb(52,101,164)" d="M 12022,10816 C 12022,11072 11955,11323 11827,11544 11699,11765 11515,11949 11294,12077 11073,12205 10822,12272 10566,12272 10310,12272 10059,12205 9838,12077 9617,11949 9433,11765 9305,11544 9177,11323 9110,11072 9110,10816 9110,10560 9177,10309 9305,10088 9433,9867 9617,9683 9838,9555 10059,9427 10310,9360 10566,9360 10822,9360 11073,9427 11294,9555 11515,9683 11699,9867 11827,10088 11955,10309 12022,10560 12022,10816 L 12022,10816 Z"/>
       </g>
      </g>
     </g>
    </g>
   </g>
  </g>
 </g>
</svg>